<svg xmlns="http://www.w3.org/2000/svg" viewBox="0 0 80 80" role="img" aria-label="Vedic Nakshatra — the Moon’s path divided into 27 lunar mansions">
  <circle cx="40" cy="40" r="40" fill="#06121E"/>
  <circle cx="40" cy="40" r="32.5" fill="none" stroke="#E8B923" stroke-width="1" stroke-opacity="0.45"/>
  <g stroke="#E8B923" stroke-width="1.5" stroke-linecap="round"><line x1="40.0" y1="10.0" x2="40.0" y2="5.0"/><line x1="46.9" y1="10.8" x2="48.1" y2="5.9"/><line x1="53.5" y1="13.2" x2="55.7" y2="8.7"/><line x1="59.3" y1="17.0" x2="62.5" y2="13.2"/><line x1="64.1" y1="22.1" x2="68.1" y2="19.1"/><line x1="67.5" y1="28.1" x2="72.1" y2="26.1"/><line x1="69.5" y1="34.8" x2="74.5" y2="33.9"/><line x1="69.9" y1="41.7" x2="74.9" y2="42.0"/><line x1="68.7" y1="48.6" x2="73.5" y2="50.0"/><line x1="66.0" y1="55.0" x2="70.3" y2="57.5"/><line x1="61.8" y1="60.6" x2="65.5" y2="64.0"/><line x1="56.5" y1="65.1" x2="59.2" y2="69.2"/><line x1="50.3" y1="68.2" x2="52.0" y2="72.9"/><line x1="43.5" y1="69.8" x2="44.1" y2="74.8"/><line x1="36.5" y1="69.8" x2="35.9" y2="74.8"/><line x1="29.7" y1="68.2" x2="28.0" y2="72.9"/><line x1="23.5" y1="65.1" x2="20.8" y2="69.2"/><line x1="18.2" y1="60.6" x2="14.5" y2="64.0"/><line x1="14.0" y1="55.0" x2="9.7" y2="57.5"/><line x1="11.3" y1="48.6" x2="6.5" y2="50.0"/><line x1="10.1" y1="41.7" x2="5.1" y2="42.0"/><line x1="10.5" y1="34.8" x2="5.5" y2="33.9"/><line x1="12.5" y1="28.1" x2="7.9" y2="26.1"/><line x1="15.9" y1="22.1" x2="11.9" y2="19.1"/><line x1="20.7" y1="17.0" x2="17.5" y2="13.2"/><line x1="26.5" y1="13.2" x2="24.3" y2="8.7"/><line x1="33.1" y1="10.8" x2="31.9" y2="5.9"/></g>
  <path d="M40 25 A15 15 0 1 0 40 55 A12 12 0 1 1 40 25 Z" fill="#2352E8"/>
  <circle cx="40" cy="5" r="3.2" fill="#E8B923"/>
</svg>
